<svg width="350" height="350" viewBox="0 0 350 350" fill="none" xmlns="http://www.w3.org/2000/svg">
<rect width="350" height="350" fill="#D9D9D9"/>
<path d="M72.7205 128.448C70.3738 128.448 68.2618 127.957 66.3845 126.976C64.5285 125.973 63.0672 124.587 62.0005 122.816C60.9338 121.045 60.4005 119.04 60.4005 116.8C60.4005 114.56 60.9338 112.555 62.0005 110.784C63.0672 109.013 64.5285 107.637 66.3845 106.656C68.2618 105.653 70.3738 105.152 72.7205 105.152C74.7685 105.152 76.6138 105.515 78.2565 106.24C79.8992 106.965 81.2645 108.011 82.3525 109.376L78.3205 113.024C76.8698 111.275 75.1098 110.4 73.0405 110.4C71.8245 110.4 70.7365 110.667 69.7765 111.2C68.8378 111.733 68.1018 112.491 67.5685 113.472C67.0565 114.432 66.8005 115.541 66.8005 116.8C66.8005 118.059 67.0565 119.179 67.5685 120.16C68.1018 121.12 68.8378 121.867 69.7765 122.4C70.7365 122.933 71.8245 123.2 73.0405 123.2C75.1098 123.2 76.8698 122.325 78.3205 120.576L82.3525 124.224C81.2645 125.589 79.8992 126.635 78.2565 127.36C76.6138 128.085 74.7685 128.448 72.7205 128.448ZM96.1855 110.368C98.3402 110.368 100.068 111.008 101.37 112.288C102.692 113.568 103.354 115.499 103.354 118.08V128H97.2735V119.072C97.2735 116.704 96.3242 115.52 94.4255 115.52C93.3802 115.52 92.5375 115.861 91.8975 116.544C91.2788 117.227 90.9695 118.251 90.9695 119.616V128H84.8895V104.256H90.9695V112.256C91.6308 111.637 92.4095 111.168 93.3055 110.848C94.2015 110.528 95.1615 110.368 96.1855 110.368ZM116.125 128.288C114.269 128.288 112.594 127.904 111.101 127.136C109.607 126.368 108.434 125.301 107.581 123.936C106.749 122.571 106.333 121.024 106.333 119.296C106.333 117.589 106.749 116.053 107.581 114.688C108.434 113.323 109.597 112.267 111.069 111.52C112.562 110.752 114.247 110.368 116.125 110.368C118.002 110.368 119.687 110.752 121.181 111.52C122.674 112.267 123.837 113.323 124.669 114.688C125.501 116.032 125.917 117.568 125.917 119.296C125.917 121.024 125.501 122.571 124.669 123.936C123.837 125.301 122.674 126.368 121.181 127.136C119.687 127.904 118.002 128.288 116.125 128.288ZM116.125 123.456C117.191 123.456 118.066 123.093 118.749 122.368C119.431 121.621 119.773 120.597 119.773 119.296C119.773 118.016 119.431 117.013 118.749 116.288C118.066 115.563 117.191 115.2 116.125 115.2C115.058 115.2 114.183 115.563 113.501 116.288C112.818 117.013 112.477 118.016 112.477 119.296C112.477 120.597 112.818 121.621 113.501 122.368C114.183 123.093 115.058 123.456 116.125 123.456ZM134.525 112.736C135.144 111.947 135.944 111.36 136.925 110.976C137.928 110.571 139.069 110.368 140.349 110.368V115.84C139.795 115.776 139.336 115.744 138.973 115.744C137.672 115.744 136.648 116.096 135.901 116.8C135.176 117.504 134.813 118.581 134.813 120.032V128H128.733V110.656H134.525V112.736ZM161.134 104.256V128H155.342V126.272C154.211 127.616 152.515 128.288 150.254 128.288C148.675 128.288 147.235 127.925 145.934 127.2C144.633 126.453 143.598 125.397 142.83 124.032C142.083 122.667 141.71 121.088 141.71 119.296C141.71 117.504 142.083 115.936 142.83 114.592C143.598 113.227 144.633 112.181 145.934 111.456C147.235 110.731 148.675 110.368 150.254 110.368C152.323 110.368 153.923 110.965 155.054 112.16V104.256H161.134ZM151.534 123.456C152.579 123.456 153.443 123.093 154.126 122.368C154.809 121.621 155.15 120.597 155.15 119.296C155.15 118.016 154.809 117.013 154.126 116.288C153.465 115.563 152.601 115.2 151.534 115.2C150.467 115.2 149.593 115.563 148.91 116.288C148.227 117.013 147.886 118.016 147.886 119.296C147.886 120.597 148.227 121.621 148.91 122.368C149.593 123.093 150.467 123.456 151.534 123.456ZM182.518 128.448C180.705 128.448 178.945 128.224 177.238 127.776C175.532 127.328 174.145 126.731 173.078 125.984L175.158 121.312C176.161 121.973 177.324 122.507 178.646 122.912C179.969 123.317 181.27 123.52 182.55 123.52C184.982 123.52 186.198 122.912 186.198 121.696C186.198 121.056 185.846 120.587 185.142 120.288C184.46 119.968 183.35 119.637 181.814 119.296C180.129 118.933 178.721 118.549 177.59 118.144C176.46 117.717 175.489 117.045 174.678 116.128C173.868 115.211 173.462 113.973 173.462 112.416C173.462 111.051 173.836 109.824 174.582 108.736C175.329 107.627 176.438 106.752 177.91 106.112C179.404 105.472 181.228 105.152 183.382 105.152C184.854 105.152 186.305 105.323 187.734 105.664C189.164 105.984 190.422 106.464 191.51 107.104L189.558 111.808C187.425 110.656 185.356 110.08 183.35 110.08C182.092 110.08 181.174 110.272 180.598 110.656C180.022 111.019 179.734 111.499 179.734 112.096C179.734 112.693 180.076 113.141 180.758 113.44C181.441 113.739 182.54 114.048 184.054 114.368C185.761 114.731 187.169 115.125 188.278 115.552C189.409 115.957 190.38 116.619 191.19 117.536C192.022 118.432 192.438 119.659 192.438 121.216C192.438 122.56 192.065 123.776 191.318 124.864C190.572 125.952 189.452 126.827 187.958 127.488C186.465 128.128 184.652 128.448 182.518 128.448ZM205.989 110.368C207.568 110.368 208.997 110.741 210.277 111.488C211.578 112.213 212.602 113.259 213.349 114.624C214.117 115.968 214.501 117.536 214.501 119.328C214.501 121.12 214.117 122.699 213.349 124.064C212.602 125.408 211.578 126.453 210.277 127.2C208.997 127.925 207.568 128.288 205.989 128.288C203.962 128.288 202.352 127.68 201.157 126.464V134.208H195.077V110.656H200.869V112.384C202 111.04 203.706 110.368 205.989 110.368ZM204.709 123.456C205.776 123.456 206.65 123.093 207.333 122.368C208.016 121.621 208.357 120.608 208.357 119.328C208.357 118.048 208.016 117.045 207.333 116.32C206.65 115.573 205.776 115.2 204.709 115.2C203.642 115.2 202.768 115.573 202.085 116.32C201.402 117.045 201.061 118.048 201.061 119.328C201.061 120.608 201.402 121.621 202.085 122.368C202.768 123.093 203.642 123.456 204.709 123.456ZM235.055 119.36C235.055 119.403 235.023 119.904 234.959 120.864H222.351C222.607 121.76 223.098 122.453 223.823 122.944C224.57 123.413 225.498 123.648 226.607 123.648C227.439 123.648 228.154 123.531 228.751 123.296C229.37 123.061 229.988 122.677 230.607 122.144L233.807 125.472C232.122 127.349 229.658 128.288 226.415 128.288C224.388 128.288 222.607 127.904 221.071 127.136C219.535 126.368 218.34 125.301 217.487 123.936C216.655 122.571 216.239 121.024 216.239 119.296C216.239 117.589 216.644 116.064 217.455 114.72C218.287 113.355 219.428 112.288 220.879 111.52C222.33 110.752 223.962 110.368 225.775 110.368C227.503 110.368 229.071 110.731 230.479 111.456C231.887 112.16 232.996 113.195 233.807 114.56C234.639 115.904 235.055 117.504 235.055 119.36ZM225.807 114.688C224.868 114.688 224.079 114.955 223.439 115.488C222.82 116.021 222.426 116.747 222.255 117.664H229.359C229.188 116.747 228.783 116.021 228.143 115.488C227.524 114.955 226.746 114.688 225.807 114.688ZM237.858 104.256H243.938V128H237.858V104.256ZM247.89 104.256H253.97V128H247.89V104.256ZM275.649 119.36C275.649 119.403 275.617 119.904 275.553 120.864H262.945C263.201 121.76 263.691 122.453 264.417 122.944C265.163 123.413 266.091 123.648 267.201 123.648C268.033 123.648 268.747 123.531 269.345 123.296C269.963 123.061 270.582 122.677 271.201 122.144L274.401 125.472C272.715 127.349 270.251 128.288 267.009 128.288C264.982 128.288 263.201 127.904 261.665 127.136C260.129 126.368 258.934 125.301 258.081 123.936C257.249 122.571 256.833 121.024 256.833 119.296C256.833 117.589 257.238 116.064 258.049 114.72C258.881 113.355 260.022 112.288 261.473 111.52C262.923 110.752 264.555 110.368 266.369 110.368C268.097 110.368 269.665 110.731 271.073 111.456C272.481 112.16 273.59 113.195 274.401 114.56C275.233 115.904 275.649 117.504 275.649 119.36ZM266.401 114.688C265.462 114.688 264.673 114.955 264.033 115.488C263.414 116.021 263.019 116.747 262.849 117.664H269.953C269.782 116.747 269.377 116.021 268.737 115.488C268.118 114.955 267.339 114.688 266.401 114.688ZM284.244 112.736C284.863 111.947 285.663 111.36 286.644 110.976C287.647 110.571 288.788 110.368 290.068 110.368V115.84C289.513 115.776 289.055 115.744 288.692 115.744C287.391 115.744 286.367 116.096 285.62 116.8C284.895 117.504 284.532 118.581 284.532 120.032V128H278.452V110.656H284.244V112.736ZM157.42 162.648H147.948L146.188 167H139.724L149.612 144.6H155.852L165.772 167H159.18L157.42 162.648ZM155.564 157.976L152.684 150.808L149.804 157.976H155.564ZM178.192 149.368C179.771 149.368 181.2 149.741 182.48 150.488C183.781 151.213 184.805 152.259 185.552 153.624C186.32 154.968 186.704 156.536 186.704 158.328C186.704 160.12 186.32 161.699 185.552 163.064C184.805 164.408 183.781 165.453 182.48 166.2C181.2 166.925 179.771 167.288 178.192 167.288C176.165 167.288 174.555 166.68 173.36 165.464V173.208H167.28V149.656H173.072V151.384C174.203 150.04 175.909 149.368 178.192 149.368ZM176.912 162.456C177.979 162.456 178.853 162.093 179.536 161.368C180.219 160.621 180.56 159.608 180.56 158.328C180.56 157.048 180.219 156.045 179.536 155.32C178.853 154.573 177.979 154.2 176.912 154.2C175.845 154.2 174.971 154.573 174.288 155.32C173.605 156.045 173.264 157.048 173.264 158.328C173.264 159.608 173.605 160.621 174.288 161.368C174.971 162.093 175.845 162.456 176.912 162.456ZM200.442 149.368C202.021 149.368 203.45 149.741 204.73 150.488C206.031 151.213 207.055 152.259 207.802 153.624C208.57 154.968 208.954 156.536 208.954 158.328C208.954 160.12 208.57 161.699 207.802 163.064C207.055 164.408 206.031 165.453 204.73 166.2C203.45 166.925 202.021 167.288 200.442 167.288C198.415 167.288 196.805 166.68 195.61 165.464V173.208H189.53V149.656H195.322V151.384C196.453 150.04 198.159 149.368 200.442 149.368ZM199.162 162.456C200.229 162.456 201.103 162.093 201.786 161.368C202.469 160.621 202.81 159.608 202.81 158.328C202.81 157.048 202.469 156.045 201.786 155.32C201.103 154.573 200.229 154.2 199.162 154.2C198.095 154.2 197.221 154.573 196.538 155.32C195.855 156.045 195.514 157.048 195.514 158.328C195.514 159.608 195.855 160.621 196.538 161.368C197.221 162.093 198.095 162.456 199.162 162.456Z" fill="#008B8B"/>
</svg>
