<svg width="313" height="166" viewBox="0 0 313 166" fill="none" xmlns="http://www.w3.org/2000/svg">
<path d="M45.284 145.432V90.3519H57.252C61.332 90.3519 64.5507 90.9866 66.908 92.2559C69.3107 93.4799 71.0107 95.3386 72.008 97.8319C73.0507 100.325 73.572 103.431 73.572 107.148V127.412C73.572 131.311 73.0507 134.597 72.008 137.272C71.0107 139.947 69.356 141.987 67.044 143.392C64.7773 144.752 61.7173 145.432 57.864 145.432H45.284ZM52.968 139.924H57.32C60.1307 139.924 62.1253 139.38 63.304 138.292C64.4827 137.204 65.1853 135.617 65.412 133.532C65.684 131.447 65.82 128.931 65.82 125.984V108.1C65.82 105.244 65.6387 102.932 65.276 101.164C64.9133 99.3959 64.12 98.1039 62.896 97.2879C61.672 96.4719 59.7453 96.0639 57.116 96.0639H52.968V139.924ZM91.4114 145.976C88.3287 145.976 85.9487 145.387 84.2714 144.208C82.594 142.984 81.4154 141.216 80.7354 138.904C80.1007 136.547 79.7834 133.668 79.7834 130.268V121.292C79.7834 117.801 80.1234 114.9 80.8034 112.588C81.4834 110.276 82.662 108.531 84.3394 107.352C86.062 106.173 88.4194 105.584 91.4114 105.584C94.7207 105.584 97.146 106.264 98.6874 107.624C100.274 108.984 101.317 110.956 101.815 113.54C102.314 116.079 102.563 119.139 102.563 122.72V125.916H87.0594V133.804C87.0594 135.391 87.1954 136.683 87.4674 137.68C87.7847 138.677 88.2607 139.425 88.8954 139.924C89.5754 140.377 90.4367 140.604 91.4794 140.604C92.5674 140.604 93.3834 140.355 93.9274 139.856C94.5167 139.312 94.902 138.564 95.0834 137.612C95.31 136.615 95.4234 135.459 95.4234 134.144V131.764H102.495V133.26C102.495 137.204 101.657 140.309 99.9794 142.576C98.302 144.843 95.446 145.976 91.4114 145.976ZM87.0594 121.972H95.4234V118.436C95.4234 116.804 95.3327 115.444 95.1514 114.356C94.97 113.223 94.5847 112.384 93.9954 111.84C93.4514 111.251 92.5674 110.956 91.3434 110.956C90.1647 110.956 89.258 111.228 88.6234 111.772C88.034 112.316 87.626 113.245 87.3994 114.56C87.1727 115.829 87.0594 117.597 87.0594 119.864V121.972ZM118.264 145.976C115.046 145.976 112.462 144.979 110.512 142.984C108.563 140.944 107.452 138.269 107.18 134.96L113.232 133.124C113.595 135.617 114.207 137.499 115.068 138.768C115.93 139.992 117.199 140.604 118.876 140.604C120.191 140.604 121.188 140.241 121.868 139.516C122.548 138.745 122.888 137.725 122.888 136.456C122.888 135.323 122.639 134.303 122.14 133.396C121.642 132.489 120.826 131.56 119.692 130.608L112.96 124.828C111.6 123.649 110.444 122.335 109.492 120.884C108.586 119.433 108.132 117.552 108.132 115.24C108.132 113.155 108.54 111.409 109.356 110.004C110.218 108.553 111.396 107.465 112.892 106.74C114.434 105.969 116.224 105.584 118.264 105.584C121.392 105.584 123.772 106.604 125.404 108.644C127.082 110.639 128.034 113.064 128.26 115.92L123.364 117.756C123.183 116.396 122.911 115.217 122.548 114.22C122.186 113.177 121.687 112.384 121.052 111.84C120.418 111.251 119.579 110.956 118.536 110.956C117.358 110.956 116.406 111.364 115.68 112.18C115 112.951 114.66 113.88 114.66 114.968C114.66 115.648 114.796 116.328 115.068 117.008C115.386 117.643 115.907 118.277 116.632 118.912L123.568 125.304C124.52 126.165 125.404 127.095 126.22 128.092C127.082 129.089 127.784 130.223 128.328 131.492C128.872 132.761 129.144 134.235 129.144 135.912C129.144 138.133 128.691 139.992 127.784 141.488C126.878 142.984 125.608 144.117 123.976 144.888C122.344 145.613 120.44 145.976 118.264 145.976ZM135.062 145.432V106.128H142.338V145.432H135.062ZM135.062 100.28V92.6639H142.338V100.28H135.062ZM160.325 157.604C157.968 157.604 155.837 157.355 153.933 156.856C152.029 156.357 150.533 155.564 149.445 154.476C148.357 153.388 147.813 151.96 147.813 150.192C147.813 148.923 148.085 147.812 148.629 146.86C149.173 145.908 149.876 145.092 150.737 144.412C151.598 143.687 152.505 143.097 153.457 142.644C152.188 142.281 151.236 141.715 150.601 140.944C149.966 140.128 149.649 139.289 149.649 138.428C149.649 136.977 150.034 135.731 150.805 134.688C151.576 133.645 152.641 132.512 154.001 131.288C152.505 130.155 151.372 128.704 150.601 126.936C149.83 125.168 149.445 122.72 149.445 119.592C149.445 116.509 149.853 113.948 150.669 111.908C151.53 109.823 152.777 108.259 154.409 107.216C156.086 106.128 158.126 105.584 160.529 105.584C162.66 105.584 164.36 105.947 165.629 106.672C166.944 107.397 167.941 108.485 168.621 109.936C168.848 109.573 169.46 108.961 170.457 108.1C171.454 107.193 172.61 106.445 173.925 105.856L175.013 105.38L176.849 110.072C176.26 110.163 175.466 110.389 174.469 110.752C173.517 111.069 172.61 111.409 171.749 111.772C170.933 112.089 170.412 112.361 170.185 112.588C170.502 113.359 170.774 114.469 171.001 115.92C171.273 117.371 171.409 118.663 171.409 119.796C171.409 122.471 171.069 124.828 170.389 126.868C169.709 128.908 168.576 130.517 166.989 131.696C165.448 132.829 163.294 133.396 160.529 133.396C159.94 133.396 159.305 133.351 158.625 133.26C157.945 133.169 157.333 133.056 156.789 132.92C156.517 133.328 156.222 133.804 155.905 134.348C155.633 134.892 155.497 135.413 155.497 135.912C155.497 136.411 155.746 136.819 156.245 137.136C156.789 137.408 157.628 137.589 158.761 137.68L164.881 138.224C167.964 138.496 170.253 139.425 171.749 141.012C173.245 142.599 173.993 144.865 173.993 147.812C173.993 149.943 173.494 151.733 172.497 153.184C171.5 154.68 169.981 155.791 167.941 156.516C165.946 157.241 163.408 157.604 160.325 157.604ZM160.869 151.892C163.453 151.892 165.357 151.575 166.581 150.94C167.805 150.351 168.417 149.376 168.417 148.016C168.417 147.2 168.258 146.52 167.941 145.976C167.669 145.432 167.148 145.001 166.377 144.684C165.606 144.367 164.496 144.14 163.045 144.004L156.857 143.46C156.358 143.959 155.882 144.457 155.429 144.956C154.976 145.455 154.613 145.976 154.341 146.52C154.069 147.109 153.933 147.721 153.933 148.356C153.933 149.535 154.432 150.419 155.429 151.008C156.426 151.597 158.24 151.892 160.869 151.892ZM160.529 128.296C161.572 128.296 162.388 128.115 162.977 127.752C163.612 127.344 164.088 126.777 164.405 126.052C164.722 125.281 164.926 124.352 165.017 123.264C165.153 122.176 165.221 120.952 165.221 119.592C165.221 118.232 165.153 117.008 165.017 115.92C164.926 114.787 164.722 113.835 164.405 113.064C164.133 112.248 163.68 111.636 163.045 111.228C162.456 110.82 161.64 110.616 160.597 110.616C159.6 110.616 158.761 110.82 158.081 111.228C157.446 111.636 156.97 112.225 156.653 112.996C156.336 113.721 156.109 114.651 155.973 115.784C155.837 116.872 155.769 118.141 155.769 119.592C155.769 120.816 155.814 121.972 155.905 123.06C156.041 124.103 156.268 125.009 156.585 125.78C156.948 126.551 157.446 127.163 158.081 127.616C158.716 128.069 159.532 128.296 160.529 128.296ZM179.676 145.432V106.128H186.952V110.004C188.267 108.78 189.717 107.737 191.304 106.876C192.891 106.015 194.636 105.584 196.54 105.584C198.127 105.584 199.328 105.992 200.144 106.808C201.005 107.624 201.595 108.644 201.912 109.868C202.275 111.092 202.456 112.339 202.456 113.608V145.432H195.18V115.716C195.18 114.311 194.976 113.223 194.568 112.452C194.16 111.681 193.321 111.296 192.052 111.296C191.236 111.296 190.375 111.545 189.468 112.044C188.607 112.497 187.768 113.064 186.952 113.744V145.432H179.676Z" fill="#BED95B"/>
<path d="M4.692 81V25.92H12.24V81H4.692ZM20.5392 81V41.696H27.8152V45.572C29.1299 44.348 30.5805 43.3053 32.1672 42.444C33.7539 41.5827 35.4992 41.152 37.4032 41.152C38.9899 41.152 40.1912 41.56 41.0072 42.376C41.8685 43.192 42.4579 44.212 42.7752 45.436C43.1379 46.66 43.3192 47.9067 43.3192 49.176V81H36.0432V51.284C36.0432 49.8787 35.8392 48.7907 35.4312 48.02C35.0232 47.2493 34.1845 46.864 32.9152 46.864C32.0992 46.864 31.2379 47.1133 30.3312 47.612C29.4699 48.0653 28.6312 48.632 27.8152 49.312V81H20.5392ZM59.534 81.544C56.3153 81.544 53.7313 80.5467 51.782 78.552C49.8327 76.512 48.722 73.8373 48.45 70.528L54.502 68.692C54.8647 71.1853 55.4767 73.0667 56.338 74.336C57.1993 75.56 58.4687 76.172 60.146 76.172C61.4607 76.172 62.458 75.8093 63.138 75.084C63.818 74.3133 64.158 73.2933 64.158 72.024C64.158 70.8907 63.9087 69.8707 63.41 68.964C62.9113 68.0573 62.0953 67.128 60.962 66.176L54.23 60.396C52.87 59.2173 51.714 57.9027 50.762 56.452C49.8553 55.0013 49.402 53.12 49.402 50.808C49.402 48.7227 49.81 46.9773 50.626 45.572C51.4873 44.1213 52.666 43.0333 54.162 42.308C55.7033 41.5373 57.494 41.152 59.534 41.152C62.662 41.152 65.042 42.172 66.674 44.212C68.3513 46.2067 69.3033 48.632 69.53 51.488L64.634 53.324C64.4527 51.964 64.1807 50.7853 63.818 49.788C63.4553 48.7453 62.9567 47.952 62.322 47.408C61.6873 46.8187 60.8487 46.524 59.806 46.524C58.6273 46.524 57.6753 46.932 56.95 47.748C56.27 48.5187 55.93 49.448 55.93 50.536C55.93 51.216 56.066 51.896 56.338 52.576C56.6553 53.2107 57.1767 53.8453 57.902 54.48L64.838 60.872C65.79 61.7333 66.674 62.6627 67.49 63.66C68.3513 64.6573 69.054 65.7907 69.598 67.06C70.142 68.3293 70.414 69.8027 70.414 71.48C70.414 73.7013 69.9607 75.56 69.054 77.056C68.1473 78.552 66.878 79.6853 65.246 80.456C63.614 81.1813 61.71 81.544 59.534 81.544ZM86.3276 81.544C84.2876 81.544 82.6329 81.1587 81.3636 80.388C80.1396 79.6173 79.2329 78.5293 78.6436 77.124C78.0996 75.7187 77.8276 74.064 77.8276 72.16V46.524H73.6796V41.696H77.8276V30.204H85.1036V41.696H91.4276V46.524H85.1036V71.684C85.1036 73.2253 85.3529 74.336 85.8516 75.016C86.3503 75.6507 87.3023 75.968 88.7076 75.968C89.0703 75.968 89.4783 75.9453 89.9316 75.9C90.4303 75.8547 90.9063 75.8093 91.3596 75.764V81.136C90.4529 81.272 89.6143 81.3627 88.8436 81.408C88.0729 81.4987 87.2343 81.544 86.3276 81.544ZM96.9776 81V41.696H104.254V47.272C105.704 44.8693 107.155 43.26 108.606 42.444C110.056 41.628 111.507 41.22 112.958 41.22C113.139 41.22 113.298 41.22 113.434 41.22C113.615 41.22 113.842 41.2427 114.114 41.288V49.312C113.57 49.0853 112.935 48.904 112.21 48.768C111.53 48.5867 110.827 48.496 110.102 48.496C108.968 48.496 107.926 48.768 106.974 49.312C106.067 49.8107 105.16 50.808 104.254 52.304V81H96.9776ZM124.265 81.544C122.724 81.544 121.523 81.136 120.661 80.32C119.8 79.504 119.188 78.484 118.825 77.26C118.508 76.036 118.349 74.7893 118.349 73.52V41.696H125.625V71.344C125.625 72.7493 125.829 73.86 126.237 74.676C126.645 75.4467 127.484 75.832 128.753 75.832C129.569 75.832 130.408 75.6053 131.269 75.152C132.176 74.6533 133.037 74.064 133.853 73.384V41.696H141.129V81H133.853V77.124C132.584 78.348 131.133 79.3907 129.501 80.252C127.915 81.1133 126.169 81.544 124.265 81.544ZM159.314 81.544C156.096 81.544 153.648 80.9093 151.97 79.64C150.338 78.3253 149.228 76.4893 148.638 74.132C148.094 71.7747 147.822 69.032 147.822 65.904V56.86C147.822 53.5507 148.117 50.74 148.706 48.428C149.296 46.0707 150.406 44.28 152.038 43.056C153.716 41.7867 156.141 41.152 159.314 41.152C162.17 41.152 164.369 41.628 165.91 42.58C167.497 43.4867 168.585 44.8693 169.174 46.728C169.764 48.5413 170.058 50.808 170.058 53.528V55.84H163.462V53.46C163.462 51.7373 163.349 50.3773 163.122 49.38C162.896 48.3827 162.488 47.6573 161.898 47.204C161.309 46.7507 160.47 46.524 159.382 46.524C158.204 46.524 157.297 46.796 156.662 47.34C156.028 47.884 155.597 48.8133 155.37 50.128C155.189 51.3973 155.098 53.1427 155.098 55.364V67.74C155.098 71.0947 155.416 73.3387 156.05 74.472C156.685 75.6053 157.818 76.172 159.45 76.172C160.674 76.172 161.558 75.9 162.102 75.356C162.692 74.7667 163.054 73.9507 163.19 72.908C163.372 71.8653 163.462 70.6867 163.462 69.372V66.176H170.058V68.896C170.058 71.5253 169.741 73.792 169.106 75.696C168.517 77.6 167.429 79.0507 165.842 80.048C164.301 81.0453 162.125 81.544 159.314 81.544ZM186.999 81.544C184.959 81.544 183.305 81.1587 182.035 80.388C180.811 79.6173 179.905 78.5293 179.315 77.124C178.771 75.7187 178.499 74.064 178.499 72.16V46.524H174.351V41.696H178.499V30.204H185.775V41.696H192.099V46.524H185.775V71.684C185.775 73.2253 186.025 74.336 186.523 75.016C187.022 75.6507 187.974 75.968 189.379 75.968C189.742 75.968 190.15 75.9453 190.603 75.9C191.102 75.8547 191.578 75.8093 192.031 75.764V81.136C191.125 81.272 190.286 81.3627 189.515 81.408C188.745 81.4987 187.906 81.544 186.999 81.544ZM197.921 81V41.696H205.197V81H197.921ZM197.921 35.848V28.232H205.197V35.848H197.921ZM223.797 81.544C220.895 81.544 218.606 80.9547 216.929 79.776C215.251 78.5973 214.05 76.92 213.325 74.744C212.645 72.568 212.305 70.0067 212.305 67.06V55.636C212.305 52.6893 212.645 50.128 213.325 47.952C214.05 45.776 215.251 44.0987 216.929 42.92C218.606 41.7413 220.895 41.152 223.797 41.152C226.698 41.152 228.965 41.7413 230.597 42.92C232.274 44.0987 233.453 45.776 234.133 47.952C234.858 50.128 235.221 52.6893 235.221 55.636V67.06C235.221 70.0067 234.858 72.568 234.133 74.744C233.453 76.92 232.274 78.5973 230.597 79.776C228.965 80.9547 226.698 81.544 223.797 81.544ZM223.797 76.172C225.202 76.172 226.177 75.764 226.721 74.948C227.31 74.132 227.65 73.0667 227.741 71.752C227.877 70.392 227.945 68.9867 227.945 67.536V55.228C227.945 53.732 227.877 52.3267 227.741 51.012C227.65 49.6973 227.31 48.632 226.721 47.816C226.177 46.9547 225.202 46.524 223.797 46.524C222.391 46.524 221.394 46.9547 220.805 47.816C220.215 48.632 219.853 49.6973 219.717 51.012C219.626 52.3267 219.581 53.732 219.581 55.228V67.536C219.581 68.9867 219.626 70.392 219.717 71.752C219.853 73.0667 220.215 74.132 220.805 74.948C221.394 75.764 222.391 76.172 223.797 76.172ZM241.871 81V41.696H249.147V45.572C250.462 44.348 251.913 43.3053 253.499 42.444C255.086 41.5827 256.831 41.152 258.735 41.152C260.322 41.152 261.523 41.56 262.339 42.376C263.201 43.192 263.79 44.212 264.107 45.436C264.47 46.66 264.651 47.9067 264.651 49.176V81H257.375V51.284C257.375 49.8787 257.171 48.7907 256.763 48.02C256.355 47.2493 255.517 46.864 254.247 46.864C253.431 46.864 252.57 47.1133 251.663 47.612C250.802 48.0653 249.963 48.632 249.147 49.312V81H241.871ZM278.826 81.544C277.285 81.544 275.925 81.1133 274.746 80.252C273.567 79.3453 272.638 78.212 271.958 76.852C271.278 75.4467 270.938 73.9733 270.938 72.432C270.938 69.984 271.346 67.9213 272.162 66.244C272.978 64.5667 274.089 63.1613 275.494 62.028C276.945 60.8493 278.599 59.8293 280.458 58.968C282.362 58.1067 284.357 57.268 286.442 56.452V53.664C286.442 52.0773 286.351 50.7627 286.17 49.72C285.989 48.6773 285.603 47.9067 285.014 47.408C284.47 46.864 283.631 46.592 282.498 46.592C281.501 46.592 280.685 46.8187 280.05 47.272C279.461 47.7253 279.03 48.3827 278.758 49.244C278.486 50.06 278.35 51.0347 278.35 52.168V54.14L271.142 53.868C271.233 49.516 272.23 46.32 274.134 44.28C276.038 42.1947 278.985 41.152 282.974 41.152C286.873 41.152 289.638 42.2173 291.27 44.348C292.902 46.4787 293.718 49.5613 293.718 53.596V71.548C293.718 72.772 293.741 73.9507 293.786 75.084C293.877 76.2173 293.967 77.2827 294.058 78.28C294.194 79.232 294.307 80.1387 294.398 81H287.734C287.598 80.2747 287.417 79.368 287.19 78.28C287.009 77.1467 286.873 76.1267 286.782 75.22C286.329 76.7613 285.445 78.212 284.13 79.572C282.861 80.8867 281.093 81.544 278.826 81.544ZM281.682 75.288C282.407 75.288 283.087 75.084 283.722 74.676C284.357 74.268 284.923 73.8147 285.422 73.316C285.921 72.772 286.261 72.3413 286.442 72.024V60.872C285.309 61.5067 284.243 62.1413 283.246 62.776C282.249 63.4107 281.365 64.0907 280.594 64.816C279.869 65.496 279.279 66.2893 278.826 67.196C278.418 68.0573 278.214 69.0547 278.214 70.188C278.214 71.7747 278.509 73.0213 279.098 73.928C279.687 74.8347 280.549 75.288 281.682 75.288ZM301.387 81V25.92H308.663V81H301.387Z" fill="#BED95B"/>
</svg>
